<svg xmlns="http://www.w3.org/2000/svg" viewBox="0 0 1200 240" role="img" aria-label="Wiele">
  <title>Wiele</title>
  <desc>Wiele wordmark using currentColor — inherits text color from CSS. Use for inline embedding in React/HTML where color is controlled by parent.</desc>
  <g fill="none" stroke="currentColor" stroke-width="28" stroke-linecap="round" stroke-linejoin="round">
    <path d="M210,40 L210,180 Q210,210 245,210 Q280,210 280,180 L280,40" />
    <path d="M310,40 L310,180 Q310,210 345,210 Q380,210 380,180 L380,40" />
    <path d="M450,40 L450,210" />
    <path d="M520,40 L520,210" />
    <path d="M520,40 L630,40" />
    <path d="M520,125 L605,125" />
    <path d="M520,210 L630,210" />
    <path d="M700,40 L700,210" />
    <path d="M700,210 L810,210" />
    <path d="M880,40 L880,210" />
    <path d="M880,40 L990,40" />
    <path d="M880,125 L965,125" />
    <path d="M880,210 L990,210" />
  </g>
</svg>
