<svg xmlns="http://www.w3.org/2000/svg" viewBox="0 0 1200 240" role="img" aria-label="WIELE wordmark">
  <rect width="1200" height="240" fill="#000000" />
  <g fill="none" stroke="#F5F1E8" stroke-width="6" stroke-linecap="butt">
    <path d="M 80 40 L 180 200 L 240 90 L 300 200 L 400 40" />
    <line x1="460" y1="40" x2="460" y2="200" />
    <line x1="540" y1="40" x2="700" y2="40" />
    <line x1="540" y1="40" x2="540" y2="200" />
    <line x1="540" y1="120" x2="640" y2="120" />
    <line x1="540" y1="200" x2="700" y2="200" />
    <line x1="760" y1="40" x2="760" y2="200" />
    <line x1="760" y1="200" x2="900" y2="200" />
    <line x1="960" y1="40" x2="1120" y2="40" />
    <line x1="960" y1="40" x2="960" y2="200" />
    <line x1="960" y1="120" x2="1060" y2="120" />
    <line x1="960" y1="200" x2="1120" y2="200" />
  </g>
  <line x1="80" y1="220" x2="1120" y2="220" stroke="#F5F1E8" stroke-width="2" />
</svg>
